<svg xmlns="http://www.w3.org/2000/svg" width="60" height="60" viewBox="0 0 60 60">
    <path fill="#3083ff" fill-rule="evenodd" d="M35.408 45.38c-6.932-.01-10.249-3.71-10.241-8.375v-1.413l7.769.01-.001.616c-.002 1.523.786 2.57 2.296 2.571 1.391.003 2.075-.64 2.077-1.725.005-3.084-11.875-2.583-11.863-11.22.006-4.656 2.96-8.713 10.305-8.703 6.601.01 9.875 3.716 9.869 8.37l-.002 1.518-7.764-.01v-.87c.002-1.252-.644-2.504-2.112-2.506-1.168 0-1.846.648-1.846 1.69-.005 3.41 11.868 2.552 11.856 11.185-.007 4.66-3.1 8.871-10.343 8.862zm-11.57-22.567l-7.644-.011.007-6.058 7.646.01-.008 6.059zm.001 6.744c-.003 2.546-.86 3.98-2.742 4.499 1.97.788 2.733 2.194 2.729 5.2l-.006 4.407-7.696-.062.01-5.76c0-1.15-1.268-1.29-2.315-1.646l.005-4.127c1.047-.341 2.318-.67 2.32-1.58l.007-6.091 7.696.01-.008 5.15zM30 0C13.433 0 0 13.43 0 30c0 16.568 13.432 30 30 30 16.57 0 30-13.432 30-30C60 13.43 46.57 0 30 0z"/>
</svg>