<svg xmlns="http://www.w3.org/2000/svg" width="123" height="36" viewBox="0 0 123 36">
    <path fill="#FFFFFF" fill-rule="evenodd" d="M5.051 5.335L5 5.283C10.556-.4 19.085-1.592 26 2.165l-1.762 3.394C18.764 2.585 12.03 3.525 7.656 8l-.01-.01c-1.504 1.67-2.644 3.698-3.324 5.964C2.72 19.285 4.004 24.792 7.22 28.51l1.466-1.458c5.492 5.46 14.262 5.566 19.59.27 5.327-5.298 5.22-14.019-.27-19.479a14.392 14.392 0 0 0-3.4-2.51L26.397 2a18.19 18.19 0 0 1 4.296 3.172c6.962 6.921 7.097 18.033.27 24.82-4.942 4.915-12.166 6.2-18.419 3.908l-.63 2.1C2.833 33.032-2.096 22.643.854 12.82c.854-2.84 2.293-5.387 4.197-7.485zM52.03 28L44 9h5.612l4.907 12.065L59.388 9H65l-8.025 19H52.03zM64 18.486c0-2.84.916-5.14 2.748-6.863C68.581 9.899 70.926 9 73.748 9c2.748 0 4.966.899 6.679 2.66a8.97 8.97 0 0 1 2.57 6.54c0 .613-.037 1.184-.074 1.724H69.318c.106 2.157 1.965 3.558 4.787 3.558a6.16 6.16 0 0 0 4.393-1.77l3.106 2.982a10.38 10.38 0 0 1-7.75 3.305c-2.964 0-5.324-.862-7.142-2.554C64.893 23.754 64 21.45 64 18.61v-.124zM78 16c0-1.676-1.697-3-3.776-3-2.252 0-4.086 1.32-4.224 3h8zm7 12V9.407h5.493v2.324C91.268 10.107 93.367 9 95.91 9c4.533 0 7.09 2.877 7.09 7.709V28h-5.474V17.376c0-2.177-1.215-3.507-3.389-3.507a3.533 3.533 0 0 0-3.65 3.692V28H85zm20 0V9.407h5.493v2.324C111.268 10.107 113.367 9 115.91 9c4.533 0 7.09 2.877 7.09 7.709V28h-5.469V17.376c0-2.177-1.215-3.507-3.39-3.507a3.533 3.533 0 0 0-3.648 3.692V28H105z"/>
</svg>
